<?xml version="1.0" encoding="UTF-8"?>
<svg width="99px" height="29px" viewBox="0 0 99 29" version="1.1" xmlns="http://www.w3.org/2000/svg" xmlns:xlink="http://www.w3.org/1999/xlink">
    <!-- Generator: Sketch 49.1 (51147) - http://www.bohemiancoding.com/sketch -->
    <title>logo_pagarme (1)</title>
    <desc>Created with Sketch.</desc>
    <defs></defs>
    <g id="Page-1" stroke="none" stroke-width="1" fill="none" fill-rule="evenodd">
        <g id="comprovante---full" transform="translate(-26.000000, -20.000000)" fill-rule="nonzero">
            <g id="logo_pagarme-(1)" transform="translate(26.000000, 20.000000)">
                <path d="M95.7699681,3 L90.2683706,3 C90.1341853,3 90.0191693,3.09202454 90.0191693,3.2208589 C90.0191693,3.2208589 90.0191693,3.2208589 90.0191693,3.2208589 L90.0191693,5.22699387 C90.0191693,5.35582822 90.115016,5.46625767 90.2492013,5.46625767 C90.2492013,5.46625767 90.2492013,5.46625767 90.2492013,5.46625767 L91.8210863,5.46625767 L93.5079872,4.34355828 C93.6421725,4.25153374 93.8338658,4.21472393 93.9872204,4.25153374 C94.2172524,4.32515337 94.370607,4.52760736 94.370607,4.74846626 L94.370607,6.95705521 C94.370607,7.10429448 94.313099,7.25153374 94.1980831,7.36196319 C94.0063898,7.52760736 93.7380192,7.54601227 93.5271565,7.39877301 L91.8402556,6.25766871 L90.2492013,6.25766871 C90.115016,6.25766871 90,6.34969325 90,6.47852761 C90,6.47852761 90,6.47852761 90,6.47852761 L90,11.7607362 C90,11.8895706 90.115016,12 90.2492013,12 L92.3578275,12 C92.4920128,12 92.6070288,11.8895706 92.5878594,11.7607362 L92.5878594,8.98159509 C92.5878594,8.85276074 92.7028754,8.74233129 92.8370607,8.7607362 L95.7699681,8.7607362 C95.9041534,8.7607362 96,8.65030675 96,8.5398773 L96,3.2392638 C96,3.11042945 95.9041534,3 95.7699681,3 C95.7699681,3 95.7699681,3 95.7699681,3 Z" id="Shape" fill="#95C93F"></path>
                <path d="M89.8652586,0 L91.8464079,0 C91.9736377,0 92.0645161,0.107553652 92.0645161,0.215107305 L92.0645161,2.16899866 C92.0645161,2.29447792 91.955462,2.38410596 91.8464079,2.38410596 L89.8652586,2.38410596 C89.7380288,2.38410596 89.6471504,2.27655231 89.6471504,2.16899866 L89.6471504,0.215107305 C89.6289747,0.107553652 89.7380288,0 89.8652586,0 Z M86.6394521,6.51655629 L88.6206015,6.51655629 C88.7478313,6.51655629 88.8387097,6.62410994 88.8387097,6.7316636 L88.8387097,8.68555495 C88.8387097,8.81103421 88.7296556,8.90066225 88.6206015,8.90066225 L86.6394521,8.90066225 C86.5122223,8.90066225 86.4213439,8.7931086 86.4213439,8.68555495 L86.4213439,6.7495892 C86.4031682,6.62410994 86.5122223,6.51655629 86.6394521,6.51655629 Z M86.6394521,3.33774834 L88.6206015,3.33774834 C88.7478313,3.33774834 88.8387097,3.445302 88.8387097,3.55285565 L88.8387097,5.506747 C88.8387097,5.63222626 88.7296556,5.7218543 88.6206015,5.7218543 L86.6394521,5.7218543 C86.5122223,5.7218543 86.4213439,5.61430065 86.4213439,5.506747 L86.4213439,3.57078126 C86.4031682,3.445302 86.5122223,3.33774834 86.6394521,3.33774834 Z M86.6394521,0 L88.6206015,0 C88.7478313,0 88.8387097,0.107553652 88.8387097,0.215107305 L88.8387097,2.16899866 C88.8387097,2.29447792 88.7296556,2.38410596 88.6206015,2.38410596 L86.6394521,2.38410596 C86.5122223,2.38410596 86.4213439,2.27655231 86.4213439,2.16899866 L86.4213439,0.215107305 C86.4031682,0.107553652 86.5122223,0 86.6394521,0 Z M93.2523553,0 L95.2335047,0 C95.3607345,0 95.4516129,0.107553652 95.4516129,0.215107305 L95.4516129,2.16899866 C95.4516129,2.29447792 95.3425588,2.38410596 95.2335047,2.38410596 L93.2523553,2.38410596 C93.1251256,2.38410596 93.0342471,2.27655231 93.0342471,2.16899866 L93.0342471,0.215107305 C93.0160715,0.107553652 93.1251256,0 93.2523553,0 Z M93.4136457,9.69536424 L95.394795,9.69536424 C95.5220248,9.69536424 95.6129032,9.80373269 95.6129032,9.91210114 L95.6129032,11.8627333 C95.6129032,11.9891632 95.5038491,12.0794702 95.394795,12.0794702 L93.4136457,12.0794702 C93.2864159,12.0794702 93.1955375,11.9711017 93.1955375,11.8627333 L93.1955375,9.91210114 C93.1773618,9.78567128 93.2864159,9.69536424 93.4136457,9.69536424 Z M96.8005865,0 L98.7800587,0 C98.9083578,0 99,0.107553652 99,0.215107305 L99,2.16899866 C99,2.29447792 98.8900293,2.38410596 98.7800587,2.38410596 L96.8005865,2.38410596 C96.6722874,2.38410596 96.5806452,2.27655231 96.5806452,2.16899866 L96.5806452,0.215107305 C96.5806452,0.107553652 96.6722874,0 96.8005865,0 Z M96.8005865,3.33774834 L98.7800587,3.33774834 C98.9083578,3.33774834 99,3.445302 99,3.55285565 L99,5.506747 C99,5.63222626 98.8900293,5.7218543 98.7800587,5.7218543 L96.8005865,5.7218543 C96.6722874,5.7218543 96.5806452,5.61430065 96.5806452,5.506747 L96.5806452,3.57078126 C96.5806452,3.445302 96.6722874,3.33774834 96.8005865,3.33774834 Z M96.8005865,6.1986755 L98.7800587,6.1986755 C98.9083578,6.1986755 99,6.30704395 99,6.4154124 L99,8.36604455 C99,8.49247441 98.8900293,8.58278146 98.7800587,8.58278146 L96.8005865,8.58278146 C96.6722874,8.58278146 96.5806452,8.474413 96.5806452,8.36604455 L96.5806452,6.43347381 C96.5806452,6.30704395 96.6722874,6.1986755 96.8005865,6.1986755 Z M96.8005865,9.69536424 L98.7800587,9.69536424 C98.9083578,9.69536424 99,9.80373269 99,9.91210114 L99,11.8627333 C99,11.9891632 98.8900293,12.0794702 98.7800587,12.0794702 L96.8005865,12.0794702 C96.6722874,12.0794702 96.5806452,11.9711017 96.5806452,11.8627333 L96.5806452,9.91210114 C96.5806452,9.78567128 96.6722874,9.69536424 96.8005865,9.69536424 Z M86.6394521,9.69536424 L88.6206015,9.69536424 C88.7478313,9.69536424 88.8387097,9.80373269 88.8387097,9.91210114 L88.8387097,11.8627333 C88.8387097,11.9891632 88.7296556,12.0794702 88.6206015,12.0794702 L86.6394521,12.0794702 C86.5122223,12.0794702 86.4213439,11.9711017 86.4213439,11.8627333 L86.4213439,9.91210114 C86.4031682,9.78567128 86.5122223,9.69536424 86.6394521,9.69536424 Z M56.2776292,20.746054 C56.3534591,20.7125331 56.429289,20.6790121 56.5051189,20.6622517 C56.7326086,20.6622517 56.9032258,20.8130958 56.9032258,21.0142214 L56.9032258,23.6456144 C56.9032258,23.7126563 56.8842683,23.7796981 56.8273959,23.84674 C56.7136511,24.0143446 56.4482465,24.0478655 56.2776292,23.9305423 L54.1733498,22.623226 C54.1354348,22.6064656 54.0975199,22.5729446 54.0785624,22.5394237 C53.9458601,22.3885795 53.983775,22.1706935 54.1733498,22.0533702 L56.2776292,20.746054 Z" id="Shape" fill="#95C93F"></path>
                <path d="M4.87139858,13 C7.90782686,13 10,14.8532198 10,18.0112576 L10,20.2048646 C10,23.2116192 8.07446012,25.0837493 5.31575394,25.0837493 C4.63070609,25.0837493 3.96417306,24.9513765 3.33466963,24.7055412 L3.33466963,28.6010848 C3.37169925,28.7901889 3.2420956,28.9603825 3.05694754,28.9982034 C3.01991792,28.9982034 3.00140312,28.9982034 2.9643735,28.9982034 L0.390815389,28.9982034 C0.205667323,29.0171138 0.0205192575,28.8847409 0.00200445091,28.6956369 C0.00200445091,28.6578161 0.00200445091,28.6389057 0.00200445091,28.6010848 L0.00200445091,14.2480868 C-0.0165103557,14.0589827 0.0945784838,13.8698787 0.279726549,13.8320579 C1.76091108,13.3025665 3.29764002,13.0189104 4.87139858,13 Z M6.6303052,20.2615959 L6.6303052,17.9356159 C6.6303052,16.5740667 5.96377217,15.9878441 4.79733935,15.9878441 C4.29743958,15.9878441 3.7975398,16.0634858 3.31615483,16.2336794 L3.31615483,21.7555179 C3.77902499,22.0202636 4.29743958,22.1526364 4.83436897,22.133726 C5.98228697,22.133726 6.6303052,21.5475035 6.6303052,20.2615959 Z" id="Shape" fill="#5C666A"></path>
                <path d="M16.1961754,13 C19.2163351,13 20.9984169,14.5774648 20.9984169,17.9201878 L20.9984169,23.9295775 C21.0171757,24.1361502 20.8671056,24.3239437 20.6607593,24.3615023 C19.1975763,24.7746479 17.6781171,25 16.1398991,25 C12.9884281,25 11,23.8169014 11,21.2253521 C11,18.9342723 12.8008406,17.8075117 15.7834828,17.8075117 C16.4025217,17.8075117 17.0215607,17.8638498 17.6405996,17.9389671 L17.6405996,17.713615 C17.6405996,16.5492958 17.227907,15.9107981 15.8022415,15.9107981 C14.845545,15.9107981 13.7012609,16.1737089 13.0634632,16.5305164 C12.9133931,16.6431925 12.688288,16.6056338 12.5757355,16.4553991 C12.5569767,16.4366197 12.5569767,16.4178404 12.538218,16.399061 L11.6377977,14.6901408 C11.5252452,14.4647887 11.5252452,14.314554 11.6753152,14.2018779 C12.7070468,13.5446009 14.3202998,13 16.1961754,13 Z M16.1586579,22.258216 C16.6651443,22.258216 17.1528719,22.1830986 17.6405996,22.0892019 L17.6405996,20.1549296 C17.1341132,20.0610329 16.6276268,20.0234742 16.1211404,20.0234742 C14.92058,20.0234742 14.3953348,20.4178404 14.3953348,21.1126761 C14.3953348,21.9014085 15.1081676,22.258216 16.1586579,22.258216 Z" id="Shape" fill="#5C666A"></path>
                <path d="M27.8317415,29 C26.0291302,29 24.7468604,28.6274738 23.538925,27.8265425 C23.3716724,27.7147846 23.3159216,27.4912689 23.4274233,27.3050058 C23.4274233,27.2863795 23.4460069,27.2863795 23.4460069,27.2677532 L24.5981914,25.5168801 C24.6725259,25.3492433 24.8583621,25.2933644 25.0256147,25.3678696 C25.0441983,25.3864959 25.0813656,25.3864959 25.0999492,25.4051222 C25.8804613,25.87078 26.7910587,26.112922 27.7016561,26.1315483 C29.0768441,26.1315483 29.764438,25.6100116 29.7458544,24.008149 C29.0954277,24.2130384 28.4078337,24.3247963 27.7202397,24.3434226 C24.914113,24.3434226 23,22.6484284 23,19.6868452 L23,17.8987194 C23,14.5087311 25.2486181,13 28.2034139,13 C29.7458544,13.0186263 31.2697113,13.3166473 32.7192338,13.8754366 C32.90507,13.9499418 33.0165717,14.1362049 32.9979881,14.3410943 L32.9979881,23.5424913 C32.9979881,27.2305006 31.4741312,29 27.8317415,29 Z M28.1662466,21.4749709 C28.7980898,21.4749709 29.374182,21.3445867 29.6901036,21.1024447 L29.6901036,16.1664726 C29.225513,16.0174622 28.7237553,15.9429569 28.2405811,15.9429569 C27.069813,15.9429569 26.382219,16.427241 26.382219,17.7869616 L26.382219,19.7054715 C26.3450518,20.9906868 27.069813,21.4749709 28.1662466,21.4749709 Z" id="Shape" fill="#5C666A"></path>
                <path d="M40.1871471,13 C43.2129829,13 44.9984139,14.5774648 44.9984139,17.9201878 L44.9984139,23.9295775 C45.017208,24.1361502 44.8668559,24.3239437 44.6601217,24.3615023 C43.1941889,24.7746479 41.671874,25 40.1495591,25 C36.9921652,25 35,23.8169014 35,21.2253521 C35,18.9342723 36.8042251,17.8075117 39.7736788,17.8075117 C40.3938812,17.8075117 41.0140836,17.8638498 41.6342859,17.9389671 L41.6342859,17.713615 C41.6342859,16.5492958 41.2208177,15.9107981 39.7924728,15.9107981 C38.8339783,15.9107981 37.6875436,16.1737089 37.0485472,16.5305164 C36.8981951,16.6431925 36.672667,16.6056338 36.5599029,16.4553991 C36.5411089,16.4366197 36.5411089,16.4178404 36.5223149,16.399061 L35.6014084,14.6713615 C35.4886443,14.4460094 35.4886443,14.2957746 35.6389964,14.1830986 C36.710255,13.5446009 38.307746,13 40.1871471,13 Z M40.1495591,22.258216 C40.6569974,22.258216 41.1456417,22.1830986 41.6342859,22.0892019 L41.6342859,20.1549296 C41.1268476,20.0610329 40.6194093,20.0234742 40.111971,20.0234742 C38.9091543,20.0234742 38.382922,20.4178404 38.382922,21.1126761 C38.382922,21.9014085 39.0970944,22.258216 40.1495591,22.258216 Z" id="Shape" fill="#5C666A"></path>
                <path d="M47.4059555,23.9983254 C47.2126434,24.015951 47.0193312,23.8925723 47,23.7163171 C47,23.681066 47,23.6634405 47,23.6281895 L47,14.2866631 C47,14.1104079 47.1159873,13.9341526 47.2899682,13.846025 C48.5851596,13.2820083 50.0156695,13 51.4461794,13 C52.1807655,13.0176255 52.9153517,13.0705021 53.6306066,13.1938807 C53.84325,13.2115063 53.9978997,13.370136 53.9978997,13.5640167 C53.9978997,13.5640167 53.9978997,13.5816422 53.9978997,13.5816422 L53.9978997,15.5028241 C54.0172309,15.6614538 53.9012436,15.8200834 53.7272627,15.837709 C53.6692691,15.837709 53.6306066,15.837709 53.572613,15.8200834 C53.1086638,15.7672069 52.6447147,15.7319558 52.1807655,15.7319558 C51.6008291,15.7143303 51.0208927,15.8024579 50.4602874,15.9963387 L50.4602874,23.610564 C50.4602874,23.8573213 50.3249689,23.9806999 50.0736631,23.9806999 L47.4059555,23.9983254 Z" id="Shape" fill="#5C666A"></path>
                <path d="M69.3410306,13.0007363 C72.100574,13.0007363 74,14.6071253 74,17.5198088 L74,23.6276177 C74,23.8747545 73.8745662,23.9983229 73.6416177,23.9983229 L71.2225375,23.9983229 C71.0433464,24.0159755 70.8641552,23.8924071 70.8462361,23.7158808 C70.8462361,23.6805756 70.8462361,23.6452703 70.8462361,23.6276177 L70.8462361,17.413893 C70.8462361,16.4076933 70.344501,15.807504 69.233516,15.807504 C68.767619,15.807504 68.3017221,15.9134197 67.8716634,16.1429039 C68.0150163,16.5665669 68.0866927,17.0255352 68.0866927,17.4845035 L68.0866927,23.6276177 C68.0866927,23.8747545 67.9612589,23.9983229 67.7283105,23.9983229 L65.3092302,23.9983229 C65.1300391,24.0159755 64.950848,23.8924071 64.9329288,23.7158808 C64.9329288,23.6805756 64.9329288,23.6629229 64.9329288,23.6276177 L64.9329288,17.413893 C64.9329288,16.3370828 64.4311937,15.7898513 63.4098042,15.7898513 C62.9976646,15.7898513 62.5676059,15.8604618 62.1733855,15.9840302 L62.1733855,23.6276177 C62.1913046,23.804144 62.0658708,23.9806702 61.8687605,23.9983229 C61.8508414,23.9983229 61.8150032,23.9983229 61.7970841,23.9983229 L59.3780038,23.9983229 C59.1988127,24.0159755 59.0196216,23.8924071 59.0017025,23.7158808 C59.0017025,23.6805756 59.0017025,23.6629229 59.0017025,23.6276177 L59.0017025,14.2717254 C58.9837833,14.0775465 59.1092171,13.8833676 59.2884083,13.8127571 C60.5785844,13.3008309 61.9583561,13.0183889 63.3560469,13.0007363 C64.3774363,12.9830837 65.3629876,13.2831783 66.2051859,13.865715 C67.3161709,13.2831783 68.2121265,13.0007363 69.3410306,13.0007363 Z" id="Shape" fill="#5C666A"></path>
                <path d="M86,19.7793427 C86,20.0234742 85.8681733,20.1549296 85.6045198,20.1549296 L79.3898305,20.1549296 L79.3898305,20.5117371 C79.3898305,21.6384977 80.1242938,22.2018779 81.2730697,22.2018779 C82.252354,22.2018779 83.2316384,21.9201878 84.0602637,21.4131455 C84.173258,21.2816901 84.3804143,21.2816901 84.4934087,21.4131455 C84.5122411,21.4319249 84.5499058,21.4694836 84.5499058,21.5070423 L85.6986817,23.0093897 C85.8305085,23.1596244 85.8116761,23.4037559 85.6610169,23.5352113 C85.6610169,23.5352113 85.6421846,23.5539906 85.6421846,23.5539906 C84.5122411,24.4178404 83.0998117,25 81.1600753,25 C78.2975518,25 76,23.4788732 76,20.4366197 L76,17.6760563 C76,14.4084507 78.3163842,13 81.1035782,13 C83.8154426,13 86,14.3521127 86,17.6760563 L86,19.7793427 Z M81.0659134,15.7981221 C80.0489642,15.7981221 79.3709981,16.3239437 79.3709981,17.5258216 L79.3709981,17.9765258 L82.7608286,17.9765258 L82.7608286,17.5258216 C82.7608286,16.342723 82.0640301,15.7981221 81.0659134,15.7981221 Z" id="Shape" fill="#5C666A"></path>
            </g>
        </g>
    </g>
</svg>