<svg id="Group_4987" data-name="Group 4987" xmlns="http://www.w3.org/2000/svg" viewBox="0 0 203.662 60.876">
  <defs>
    <style>
      .cls-1 {
        fill: #5c666a;
      }

      .cls-2 {
        fill: #12aa4b;
      }
    </style>
  </defs>
  <g id="Group_4986" data-name="Group 4986">
    <g id="Group_4983" data-name="Group 4983" transform="translate(63.482 23.967)">
      <path id="Path_2618" data-name="Path 2618" class="cls-1" d="M74.188,13.45A15.61,15.61,0,0,0,62.53,18.5a16.192,16.192,0,0,0-11.838-5.05,15.851,15.851,0,0,0-8.254,2.263,3.985,3.985,0,0,0-3.313-1.756h-.036a4.033,4.033,0,0,0-4.019,4.019V45.526h0a3.585,3.585,0,0,0,.163,1.086,3.945,3.945,0,0,0,1.611,2.227h0c.036.018.054.036.091.054a3.96,3.96,0,0,0,2.154.634h.036a4.006,4.006,0,0,0,2.154-.634c.036-.018.054-.036.091-.054h0a4.029,4.029,0,0,0,1.611-2.227,4.254,4.254,0,0,0,.163-1.086h0V28.565a7.532,7.532,0,0,1,7.548-7.657,7.821,7.821,0,0,1,7.892,7.657V45.49h0a3.965,3.965,0,0,0,.688,2.245,1.976,1.976,0,0,0,.235.308,3.935,3.935,0,0,0,1.195.977,2.954,2.954,0,0,0,.344.163,4.139,4.139,0,0,0,1.575.308h0a3.2,3.2,0,0,0,.416-.018,3.969,3.969,0,0,0,1.7-.579,1.509,1.509,0,0,0,.217-.145,2.7,2.7,0,0,0,.489-.416l.018-.018a4.024,4.024,0,0,0,1.177-2.842V28.818h0v-.253a7.532,7.532,0,0,1,7.548-7.657,7.821,7.821,0,0,1,7.892,7.657V45.49a4.028,4.028,0,0,0,8.055,0V28.836C90.135,20.148,82.895,13.45,74.188,13.45Z" transform="translate(-35.07 -13.07)"/>
      <path id="Path_2619" data-name="Path 2619" class="cls-1" d="M114.112,28.192c-4.127-1.321-7.929-2.389-7.929-4.978v-.127c0-1.991,1.792-3.457,4.924-3.457a19.123,19.123,0,0,1,8.254,2.389,3.063,3.063,0,0,0,1.593.4,3.239,3.239,0,0,0,3.331-3.258,3.4,3.4,0,0,0-1.937-3.059,24.272,24.272,0,0,0-11.042-2.86c-6.987,0-12.508,4.055-12.508,10.7v.127c0,6.716,5.793,8.834,10.988,10.3,4.127,1.267,7.856,2.19,7.856,4.924v.127c0,2.317-1.991,3.783-5.467,3.783a18.541,18.541,0,0,1-10.119-3.385,3.49,3.49,0,0,0-1.738-.471A3.222,3.222,0,0,0,97.06,42.6,3.089,3.089,0,0,0,98.6,45.389a24.065,24.065,0,0,0,13.377,4.181c7.331,0,13.051-3.657,13.051-11.024v-.127C125.027,32.1,119.235,29.785,114.112,28.192Z" transform="translate(15.152 -13.24)"/>
      <path id="Path_2620" data-name="Path 2620" class="cls-1" d="M94.687,13.72H94.65a4.013,4.013,0,0,0-4,4v27.46a4.013,4.013,0,0,0,4,4h.036a4.013,4.013,0,0,0,4-4V17.72A4.025,4.025,0,0,0,94.687,13.72Z" transform="translate(9.959 -12.851)"/>
      <path id="Path_2621" data-name="Path 2621" class="cls-1" d="M86.121,13.41A18.356,18.356,0,0,0,67.35,31.747v.127c0,9.956,7.929,18.138,18.645,18.138A19.263,19.263,0,0,0,96.964,46.7a4.026,4.026,0,0,0,7.874-1.177V32.163a.066.066,0,0,0-.018-.054c0-.127.018-.235.018-.362V31.62C104.839,21.574,96.91,13.41,86.121,13.41Zm0,29.56c-6.263,0-10.716-5.123-10.716-11.223V31.62c0-6.118,4.127-11.169,10.589-11.169,6.317,0,10.789,5.123,10.789,11.3v.127C96.783,37.92,92.656,42.97,86.121,42.97Z" transform="translate(-8.918 -13.102)"/>
    </g>
    <g id="Group_4984" data-name="Group 4984" transform="translate(0 24.831)">
      <path id="Path_2622" data-name="Path 2622" class="cls-2" d="M11.4,31.324,2.317,26.074A1.542,1.542,0,0,0,0,27.414v10.5a1.542,1.542,0,0,0,2.317,1.34L11.4,34A1.546,1.546,0,0,0,11.4,31.324Z" transform="translate(0 -3.877)"/>
      <path id="Path_2623" data-name="Path 2623" class="cls-2" d="M18.776,31.144l9.087-5.249a1.542,1.542,0,0,1,2.317,1.34v10.5a1.542,1.542,0,0,1-2.317,1.34l-9.087-5.249A1.546,1.546,0,0,1,18.776,31.144Z" transform="translate(14.585 -4.023)"/>
      <path id="Path_2624" data-name="Path 2624" class="cls-2" d="M35.225,13.921,23.169,20.908a1.589,1.589,0,0,1-1.557,0L9.557,13.921a1.555,1.555,0,0,0-1.539,0L.958,17.94a1.536,1.536,0,0,0-.778,1.34V29.633A1.542,1.542,0,0,0,2.5,30.973l5.539-3.15a1.555,1.555,0,0,1,1.539,0L21.63,34.81a1.589,1.589,0,0,0,1.557,0l12.056-6.987a1.555,1.555,0,0,1,1.539,0l5.539,3.15a1.554,1.554,0,0,0,2.317-1.34V19.279a1.515,1.515,0,0,0-.778-1.34L36.8,13.921A1.624,1.624,0,0,0,35.225,13.921Z" transform="translate(0.146 -13.718)"/>
    </g>
    <g id="Group_4985" data-name="Group 4985" transform="translate(63.501)">
      <path id="Path_2625" data-name="Path 2625" class="cls-1" d="M35.6,12.951a1.057,1.057,0,0,1-.525-.977,1.12,1.12,0,0,1,1.14-1.122,1.218,1.218,0,0,1,.6.163,6.5,6.5,0,0,0,3.512,1.177c1.195,0,1.9-.507,1.9-1.321v-.036c0-.941-1.285-1.267-2.733-1.7-1.81-.507-3.819-1.249-3.819-3.566V5.511c0-2.3,1.919-3.711,4.344-3.711a8.3,8.3,0,0,1,3.838,1,1.17,1.17,0,0,1,.67,1.068,1.114,1.114,0,0,1-1.159,1.122,1.176,1.176,0,0,1-.561-.145,6.681,6.681,0,0,0-2.86-.833c-1.086,0-1.7.507-1.7,1.195v.054C38.248,6.162,39.569,6.525,41,7c1.774.561,3.783,1.358,3.783,3.548V10.6c0,2.552-1.991,3.819-4.525,3.819A8.449,8.449,0,0,1,35.6,12.951" transform="translate(-35.08 1.458)"/>
      <path id="Path_2626" data-name="Path 2626" class="cls-1" d="M44.53,8.178V8.142a6.51,6.51,0,0,1,13.015-.054v.054a6.51,6.51,0,0,1-13.015.036m10.227,0V8.142A3.785,3.785,0,0,0,51.01,4.214a3.658,3.658,0,0,0-3.675,3.874v.054a3.761,3.761,0,0,0,3.729,3.892,3.667,3.667,0,0,0,3.693-3.856" transform="translate(-27.424 1.434)"/>
      <path id="Path_2627" data-name="Path 2627" class="cls-1" d="M57.782,1.78A5.32,5.32,0,0,0,52.37,7.12v5.774a1.394,1.394,0,0,0,1.394,1.394h0a1.394,1.394,0,0,0,1.394-1.394V7.029a2.623,2.623,0,0,1,2.625-2.661,2.714,2.714,0,0,1,2.733,2.661v5.883a1.394,1.394,0,0,0,1.394,1.394h0A1.394,1.394,0,0,0,63.3,12.913V7.138A5.406,5.406,0,0,0,57.782,1.78Z" transform="translate(-21.072 1.442)"/>
      <path id="Path_2628" data-name="Path 2628" class="cls-1" d="M41.12,11.495h0a4.314,4.314,0,0,0,4.181,4.4h0c.127.018.507.018.742.018a1.3,1.3,0,0,0,1.3-1.3h0a1.3,1.3,0,0,0-1.3-1.3h-.38a1.754,1.754,0,0,1-1.738-1.756V5.992H46.08a1.259,1.259,0,0,0,1.267-1.267h0A1.259,1.259,0,0,0,46.08,3.457H43.926V1.394a1.394,1.394,0,1,0-2.788,0V4.725h0v6.77Z" transform="translate(-30.187)"/>
      <path id="Path_2629" data-name="Path 2629" class="cls-1" d="M63.811,7.906A1.194,1.194,0,0,0,65.006,9.1h4.544a1.194,1.194,0,0,0,1.195-1.195c0-3.476-2.335-6.136-5.575-6.136A6.154,6.154,0,0,0,58.96,8.142V8.2a6.252,6.252,0,0,0,6.372,6.3A6.427,6.427,0,0,0,69.387,13.1a1.259,1.259,0,0,0,.054-1.937,1.291,1.291,0,0,0-1.683.018,3.636,3.636,0,0,1-2.371.869A3.725,3.725,0,0,1,61.73,8.16V8.087c0-2.118,1.213-3.874,3.4-3.874a3.049,3.049,0,0,1,2.878,2.5h-3A1.205,1.205,0,0,0,63.811,7.906Z" transform="translate(-15.733 1.434)"/>
    </g>
  </g>
</svg>
